<svg xmlns="http://www.w3.org/2000/svg" viewBox="0 0 120 120" role="img" aria-label="M’AKOMA"><rect width="120" height="120" rx="27" fill="#0B0B0D"/><g transform="translate(60 62) scale(0.2800) translate(-150.0 -144.3)"><path d="M125.48 198.04 C124.62 197.55 124.72 198.90 120.32 195.12 C115.92 191.35 110.94 185.20 99.09 175.37 C87.25 165.55 59.66 144.87 49.26 136.19 C38.87 127.51 40.61 127.88 36.73 123.29 C32.86 118.70 29.17 114.37 26.02 108.64 C22.88 102.91 19.52 95.17 17.86 88.91 C16.20 82.64 15.75 76.91 16.05 71.08 C16.35 65.24 17.47 59.81 19.67 53.89 C21.87 47.96 27.17 39.19 29.26 35.53 C31.34 31.88 30.07 33.70 32.16 31.98 C34.25 30.26 37.85 27.38 41.79 25.21 C45.73 23.03 50.91 20.05 55.80 18.94 C60.68 17.83 66.57 17.98 71.08 18.55 C75.59 19.12 78.85 20.36 82.86 22.35 C86.86 24.35 91.64 27.62 95.11 30.54 C98.57 33.46 100.68 35.93 103.64 39.88 C106.60 43.82 109.26 47.94 112.86 54.20 C116.46 60.46 122.21 72.32 125.26 77.44 C128.31 82.57 129.21 83.06 131.16 84.97 C133.11 86.88 133.83 87.78 136.98 88.88 C140.12 89.98 145.57 91.54 150.03 91.57 C154.49 91.59 160.22 90.35 163.72 89.03 C167.22 87.71 168.65 86.12 171.02 83.66 C173.39 81.20 174.20 80.57 177.93 74.26 C181.67 67.95 188.70 53.31 193.44 45.80 C198.18 38.29 201.94 33.52 206.38 29.21 C210.82 24.89 215.24 22.09 220.07 19.88 C224.90 17.68 231.00 16.41 235.35 16.00 C239.70 15.59 242.52 16.31 246.18 17.45 C249.84 18.59 253.62 20.45 257.32 22.83 C261.02 25.20 265.54 28.50 268.39 31.71 C271.23 34.93 272.48 37.77 274.37 42.11 C276.26 46.44 278.53 53.04 279.73 57.71 C280.93 62.38 281.35 66.09 281.57 70.12 C281.79 74.15 281.72 77.18 281.06 81.90 C280.40 86.62 280.35 91.56 277.59 98.46 C274.83 105.35 269.14 116.33 264.50 123.29 C259.87 130.25 254.37 135.69 249.78 140.23 C245.19 144.77 245.26 144.87 236.94 150.53 C228.63 156.19 208.50 168.25 199.87 174.19 C191.25 180.12 189.02 182.73 185.18 186.13 C181.34 189.54 179.19 192.64 176.84 194.62 C174.49 196.59 172.04 197.41 171.08 197.96" fill="none" stroke="#C9A04E" stroke-width="10" stroke-linecap="round" stroke-linejoin="round"/><path d="M130.02 225.63 C129.24 226.03 126.84 226.57 125.37 228.03 C123.90 229.49 122.50 231.85 121.21 234.40 C119.92 236.94 119.23 237.74 117.64 243.31 C116.06 248.88 112.97 263.31 111.70 267.83 C110.43 272.34 110.75 269.71 110.02 270.42 C109.29 271.12 107.78 271.79 107.33 272.07" fill="none" stroke="#C9A04E" stroke-width="9" stroke-linecap="round" stroke-linejoin="round"/><path d="M165.91 225.70 C166.74 226.12 169.55 227.03 170.92 228.26 C172.28 229.50 172.72 230.03 174.12 233.12 C175.52 236.22 177.69 241.03 179.32 246.81 C180.96 252.60 182.49 263.60 183.93 267.83 C185.37 272.06 187.29 271.47 187.96 272.20" fill="none" stroke="#C9A04E" stroke-width="9" stroke-linecap="round" stroke-linejoin="round"/><rect x="140.83" y="205.44" width="12.90" height="4.8" rx="2.3" fill="#C9A04E"/><rect x="140.83" y="212.44" width="12.90" height="4.8" rx="2.3" fill="#C9A04E"/><rect x="140.83" y="219.44" width="12.90" height="4.8" rx="2.3" fill="#C9A04E"/><circle cx="269.06" cy="32.12" r="10.36" fill="#C9A04E"/><circle cx="30.66" cy="33.24" r="10.60" fill="#C9A04E"/><circle cx="149.45" cy="91.85" r="10.44" fill="#C9A04E"/><circle cx="273.85" cy="106.27" r="10.15" fill="#C9A04E"/></g></svg>